<svg width="34" height="34" viewBox="0 0 34 34" fill="none" xmlns="http://www.w3.org/2000/svg">
<g clip-path="url(#clip0_8690_865)">
<path d="M30.4583 31.1667H26.2083C26.0205 31.1667 25.8403 31.092 25.7075 30.9592C25.5746 30.8264 25.5 30.6462 25.5 30.4583V26.2083C25.5 26.0205 25.5746 25.8403 25.7075 25.7075C25.8403 25.5746 26.0205 25.5 26.2083 25.5C26.3962 25.5 26.5764 25.5746 26.7092 25.7075C26.842 25.8403 26.9167 26.0205 26.9167 26.2083V29.75H30.4583C30.6462 29.75 30.8264 29.8246 30.9592 29.9575C31.092 30.0903 31.1667 30.2705 31.1667 30.4583C31.1667 30.6462 31.092 30.8264 30.9592 30.9592C30.8264 31.092 30.6462 31.1667 30.4583 31.1667Z" fill="black"/>
<path d="M26.6475 30.8125C26.498 30.8126 26.3522 30.7654 26.2312 30.6777C26.1101 30.5899 26.0199 30.4661 25.9735 30.3239C25.9271 30.1818 25.9269 30.0286 25.9729 29.8863C26.0189 29.744 26.1088 29.6199 26.2296 29.5318C28.196 28.0864 29.7954 26.1993 30.899 24.0226C32.0026 21.846 32.5795 19.4405 32.5833 17C32.5833 8.40792 25.5921 1.41667 17 1.41667C8.40792 1.41667 1.41667 8.40792 1.41667 17C1.41667 17.1879 1.34204 17.368 1.2092 17.5009C1.07636 17.6337 0.896195 17.7083 0.708333 17.7083C0.520472 17.7083 0.340304 17.6337 0.207466 17.5009C0.0746278 17.368 0 17.1879 0 17C0 7.62592 7.62592 0 17 0C26.3741 0 34 7.62592 34 17C34 22.3833 31.4075 27.4961 27.064 30.6751C26.9437 30.7648 26.7976 30.813 26.6475 30.8125Z" fill="black"/>
<path d="M0.950583 20.5303C0.78415 20.5301 0.623136 20.4711 0.495896 20.3638C0.368656 20.2565 0.28335 20.1078 0.255 19.9438C0.0864167 18.9805 0 17.9902 0 17C0 16.8121 0.0746278 16.6319 0.207466 16.4991C0.340304 16.3663 0.520472 16.2916 0.708333 16.2916C0.896195 16.2916 1.07636 16.3663 1.2092 16.4991C1.34204 16.6319 1.41667 16.8121 1.41667 17C1.41667 17.9095 1.496 18.8175 1.649 19.6987C1.66701 19.8007 1.66246 19.9053 1.63566 20.0053C1.60886 20.1053 1.56047 20.1982 1.49388 20.2775C1.4273 20.3568 1.34415 20.4205 1.25028 20.4642C1.15641 20.5079 1.05411 20.5304 0.950583 20.5303ZM16.9802 34C16.3908 34 15.793 33.9688 15.2065 33.9065C15.1141 33.8967 15.0245 33.8689 14.9429 33.8246C14.8613 33.7802 14.7892 33.7202 14.7308 33.648C14.6724 33.5757 14.6288 33.4927 14.6025 33.4036C14.5762 33.3145 14.5677 33.2211 14.5775 33.1287C14.5854 33.0354 14.612 32.9447 14.6558 32.8619C14.6997 32.7792 14.7598 32.7062 14.8326 32.6473C14.9054 32.5884 14.9893 32.5448 15.0794 32.5192C15.1695 32.4936 15.2638 32.4865 15.3567 32.4983C15.895 32.5564 16.4758 32.6074 16.9986 32.5833C18.0356 32.5833 19.0683 32.4827 20.0685 32.283C20.2493 32.2544 20.434 32.2969 20.5842 32.4016C20.7343 32.5062 20.8381 32.6649 20.8738 32.8444C20.9095 33.0239 20.8743 33.2102 20.7757 33.3643C20.6771 33.5185 20.5227 33.6285 20.3448 33.6713C19.2553 33.8895 18.1291 34 17 34H16.9802ZM11.6677 33.1075C11.5887 33.1072 11.5102 33.0943 11.4353 33.0692C9.80592 32.5037 8.27206 31.6936 6.88642 30.6665C6.73538 30.5548 6.63493 30.3876 6.60716 30.2017C6.5794 30.0159 6.6266 29.8266 6.73838 29.6756C6.85015 29.5245 7.01735 29.4241 7.20319 29.3963C7.38903 29.3686 7.57829 29.4158 7.72933 29.5275C9.00433 30.4725 10.4083 31.2134 11.8986 31.7305C12.0563 31.7856 12.1895 31.8947 12.2745 32.0385C12.3596 32.1823 12.3911 32.3515 12.3635 32.5163C12.3358 32.6811 12.2508 32.8308 12.1235 32.9389C11.9962 33.0471 11.8347 33.1068 11.6677 33.1075ZM4.60133 28.2752C4.49902 28.2752 4.39792 28.2531 4.30499 28.2103C4.21206 28.1675 4.1295 28.105 4.063 28.0273C2.94218 26.7163 2.02784 25.2421 1.3515 23.6555C1.27786 23.4826 1.27589 23.2876 1.34603 23.1133C1.41617 22.939 1.55267 22.7998 1.7255 22.7261C1.89833 22.6525 2.09334 22.6505 2.26762 22.7207C2.44191 22.7908 2.58119 22.9273 2.65483 23.1001C3.27511 24.5547 4.11296 25.9066 5.13967 27.1093C5.22681 27.2123 5.28273 27.338 5.30087 27.4716C5.31901 27.6053 5.29861 27.7413 5.24207 27.8638C5.18552 27.9863 5.09518 28.09 4.98168 28.1629C4.86817 28.2358 4.73622 28.2748 4.60133 28.2752ZM23.7476 32.5394C23.5857 32.5396 23.4287 32.4844 23.3026 32.3829C23.1765 32.2815 23.0889 32.1399 23.0545 31.9818C23.02 31.8236 23.0408 31.6585 23.1133 31.5138C23.1858 31.3691 23.3056 31.2536 23.4529 31.1865C24.2746 30.8096 25.0665 30.3591 25.8046 29.8463C25.959 29.7392 26.1496 29.6979 26.3346 29.7313C26.5195 29.7648 26.6835 29.8704 26.7906 30.0248C26.8977 30.1792 26.939 30.3699 26.9055 30.5548C26.8721 30.7397 26.7665 30.9037 26.6121 31.0108C25.8046 31.5704 24.939 32.062 24.0423 32.4742C23.9501 32.5176 23.8494 32.5399 23.7476 32.5394ZM14.875 21.9583H10.625C10.4371 21.9583 10.257 21.8837 10.1241 21.7508C9.99129 21.618 9.91667 21.4378 9.91667 21.25V19.8333C9.91667 17.8811 11.5048 16.2916 13.4583 16.2916C13.6462 16.2916 13.8264 16.217 13.9592 16.0842C14.092 15.9513 14.1667 15.7712 14.1667 15.5833V14.1666C14.1667 13.9788 14.092 13.7986 13.9592 13.6658C13.8264 13.5329 13.6462 13.4583 13.4583 13.4583H10.625C10.4371 13.4583 10.257 13.3837 10.1241 13.2508C9.99129 13.118 9.91667 12.9378 9.91667 12.75C9.91667 12.5621 9.99129 12.3819 10.1241 12.2491C10.257 12.1163 10.4371 12.0416 10.625 12.0416H13.4583C14.6299 12.0416 15.5833 12.995 15.5833 14.1666V15.5833C15.5833 16.7549 14.6299 17.7083 13.4583 17.7083C12.2868 17.7083 11.3333 18.6617 11.3333 19.8333V20.5416H14.875C15.0629 20.5416 15.243 20.6163 15.3759 20.7491C15.5087 20.8819 15.5833 21.0621 15.5833 21.25C15.5833 21.4378 15.5087 21.618 15.3759 21.7508C15.243 21.8837 15.0629 21.9583 14.875 21.9583ZM23.375 17.7083H20.5417C19.3701 17.7083 18.4167 16.7549 18.4167 15.5833V12.75C18.4167 12.5621 18.4913 12.3819 18.6241 12.2491C18.757 12.1163 18.9371 12.0416 19.125 12.0416C19.3129 12.0416 19.493 12.1163 19.6259 12.2491C19.7587 12.3819 19.8333 12.5621 19.8333 12.75V15.5833C19.8333 15.7712 19.908 15.9513 20.0408 16.0842C20.1736 16.217 20.3538 16.2916 20.5417 16.2916H23.375C23.5629 16.2916 23.743 16.3663 23.8759 16.4991C24.0087 16.6319 24.0833 16.8121 24.0833 17C24.0833 17.1878 24.0087 17.368 23.8759 17.5008C23.743 17.6337 23.5629 17.7083 23.375 17.7083Z" fill="black"/>
<path d="M23.3748 21.9583C23.187 21.9583 23.0068 21.8837 22.874 21.7508C22.7411 21.618 22.6665 21.4378 22.6665 21.25V12.75C22.6665 12.5621 22.7411 12.3819 22.874 12.2491C23.0068 12.1163 23.187 12.0416 23.3748 12.0416C23.5627 12.0416 23.7429 12.1163 23.8757 12.2491C24.0085 12.3819 24.0832 12.5621 24.0832 12.75V21.25C24.0832 21.4378 24.0085 21.618 23.8757 21.7508C23.7429 21.8837 23.5627 21.9583 23.3748 21.9583Z" fill="black"/>
</g>
<defs>
<clipPath id="clip0_8690_865">
<rect width="34" height="34" fill="white"/>
</clipPath>
</defs>
</svg>
