<svg width="69" height="73" viewBox="0 0 69 73" fill="none" xmlns="http://www.w3.org/2000/svg">
<path d="M0 45.3308C2.31888 45.217 4.28101 44.2686 5.88638 42.4858C7.49176 40.7029 8.31229 38.5786 8.31229 36.1129C8.31229 38.5786 9.09714 40.7029 10.7025 42.4858C12.3079 44.2686 14.27 45.217 16.5889 45.3308C14.27 45.4446 12.3079 46.3929 10.7025 48.1758C9.92636 49.0163 9.31529 50.0126 8.90493 51.1068C8.49456 52.2009 8.2931 53.3709 8.31229 54.5487C8.31229 52.083 7.52743 49.9587 5.88638 48.1758C4.28101 46.3929 2.31888 45.4446 0 45.3308ZM8.31229 18.0185C12.8073 17.7909 16.6246 15.9322 19.764 12.4423C22.9034 8.95236 24.4731 4.81758 24.4731 0C24.4731 4.81758 26.0428 8.95236 29.1822 12.4423C32.3216 15.9322 36.1388 17.753 40.6696 18.0185C37.7085 18.1702 34.9972 19.0427 32.5 20.7118C30.0384 22.343 28.0763 24.5431 26.6136 27.2743C25.1866 30.0056 24.4731 32.9265 24.4731 36.1129C24.4731 31.2953 22.9034 27.1226 19.764 23.6327C16.6246 20.1049 12.8073 18.2461 8.31229 18.0185ZM20.1564 58.8731C23.5455 58.7214 26.4352 57.3178 28.7898 54.7004C31.1443 52.083 32.3216 48.9724 32.3216 45.3308C32.3216 48.9724 33.4989 52.083 35.8534 54.7004C38.208 57.3178 41.062 58.7214 44.4511 58.8731C41.062 59.0249 38.208 60.4284 35.8534 63.0458C33.4989 65.6633 32.3216 68.7738 32.3216 72.4155C32.3216 68.7738 31.1443 65.6633 28.7898 63.0458C26.5394 60.5028 23.438 59.0039 20.1564 58.8731ZM44.4511 40.8925C47.8402 40.7408 50.6942 39.3373 53.0488 36.7198C55.4033 34.1024 56.5449 30.9918 56.5449 27.3123C56.5449 30.9539 57.7222 34.0645 60.0768 36.6819C62.4313 39.2993 65.321 40.7029 68.7101 40.8546C65.321 41.0063 62.4313 42.4099 60.0768 45.0273C57.7222 47.6447 56.5449 50.7553 56.5449 54.3969C56.5449 50.7553 55.3677 47.6447 53.0488 45.0273C50.6942 42.4478 47.8402 41.0443 44.4511 40.8925Z" fill="#43B97F"/>
</svg>
