<svg width="81" height="85" viewBox="0 0 81 85" fill="none" xmlns="http://www.w3.org/2000/svg">
<path d="M0 52.8426C2.70314 52.7099 4.99041 51.6044 6.86182 49.5261C8.73322 47.4478 9.68972 44.9715 9.68972 42.0972C9.68972 44.9715 10.6046 47.4478 12.476 49.5261C14.3474 51.6044 16.6347 52.7099 19.3379 52.8426C16.6347 52.9752 14.3474 54.0807 12.476 56.1591C11.5713 57.1388 10.8589 58.3003 10.3806 59.5757C9.9022 60.8511 9.66735 62.2151 9.68972 63.588C9.68972 60.7137 8.77481 58.2374 6.86182 56.1591C4.99041 54.0807 2.70314 52.9752 0 52.8426ZM9.68972 21.0044C14.9297 20.739 19.3794 18.5723 23.0391 14.5041C26.6987 10.4359 28.5285 5.6159 28.5285 0C28.5285 5.6159 30.3583 10.4359 34.018 14.5041C37.6776 18.5723 42.1274 20.6948 47.4089 21.0044C43.9572 21.1812 40.7966 22.1983 37.8855 24.144C35.0161 26.0454 32.7288 28.6102 31.0237 31.794C29.3603 34.9778 28.5285 38.3827 28.5285 42.0972C28.5285 36.4813 26.6987 31.6171 23.0391 27.5489C19.3794 23.4365 14.9297 21.2697 9.68972 21.0044ZM23.4965 68.629C27.4473 68.4521 30.8158 66.816 33.5605 63.7648C36.3053 60.7137 37.6776 57.0877 37.6776 52.8426C37.6776 57.0877 39.05 60.7137 41.7947 63.7648C44.5394 66.816 47.8664 68.4521 51.8171 68.629C47.8664 68.8059 44.5394 70.442 41.7947 73.4932C39.05 76.5443 37.6776 80.1704 37.6776 84.4155C37.6776 80.1704 36.3053 76.5443 33.5605 73.4932C30.9372 70.5288 27.3219 68.7814 23.4965 68.629ZM51.8171 47.6689C55.7679 47.492 59.0948 45.8559 61.8395 42.8047C64.5843 39.7535 65.915 36.1275 65.915 31.8382C65.915 36.0833 67.2874 39.7093 70.0321 42.7605C72.7769 45.8116 76.1454 47.4478 80.0961 47.6246C76.1454 47.8015 72.7769 49.4377 70.0321 52.4888C67.2874 55.54 65.915 59.166 65.915 63.4111C65.915 59.166 64.5427 55.54 61.8395 52.4888C59.0948 49.4819 55.7679 47.8457 51.8171 47.6689Z" fill="#F3B634"/>
</svg>
