<svg width="34" height="34" viewBox="0 0 34 34" fill="none" xmlns="http://www.w3.org/2000/svg">
<path d="M26.2084 14.1667L26.7638 13.6627C26.6217 13.506 26.42 13.4167 26.2084 13.4167V14.1667ZM31.1667 19.631H31.9167C31.9167 19.4446 31.8474 19.265 31.7222 19.127L31.1667 19.631ZM31.1667 25.5L31.1669 26.25C31.581 26.2499 31.9167 25.9142 31.9167 25.5H31.1667ZM28.2126 25.5004L27.5055 25.7502V25.7502L28.2126 25.5004ZM24.2042 25.5004L24.9114 25.7502V25.7502L24.2042 25.5004ZM21.2501 14.1667V13.4167C20.8359 13.4167 20.5001 13.7525 20.5001 14.1667H21.2501ZM1.41675 7.75C1.00253 7.75 0.666748 8.08579 0.666748 8.5C0.666748 8.91421 1.00253 9.25 1.41675 9.25V7.75ZM21.2501 8.5H22.0001C22.0001 8.08579 21.6643 7.75 21.2501 7.75V8.5ZM5.66695 24.75C5.25274 24.7499 4.91686 25.0856 4.91675 25.4998C4.91664 25.914 5.25233 26.2499 5.66655 26.25L5.66695 24.75ZM6.37508 17.75C6.78929 17.75 7.12508 17.4142 7.12508 17C7.12508 16.5858 6.78929 16.25 6.37508 16.25V17.75ZM4.25008 16.25C3.83587 16.25 3.50008 16.5858 3.50008 17C3.50008 17.4142 3.83587 17.75 4.25008 17.75V16.25ZM6.37508 22C6.78929 22 7.12508 21.6642 7.12508 21.25C7.12508 20.8358 6.78929 20.5 6.37508 20.5V22ZM5.66675 20.5C5.25253 20.5 4.91675 20.8358 4.91675 21.25C4.91675 21.6642 5.25253 22 5.66675 22V20.5ZM6.37508 13.5C6.78929 13.5 7.12508 13.1642 7.12508 12.75C7.12508 12.3358 6.78929 12 6.37508 12V13.5ZM2.83341 12C2.4192 12 2.08341 12.3358 2.08341 12.75C2.08341 13.1642 2.4192 13.5 2.83341 13.5V12ZM25.653 14.6707L30.6113 20.1349L31.7222 19.127L26.7638 13.6627L25.653 14.6707ZM30.4167 19.631V25.5H31.9167V19.631H30.4167ZM31.1666 24.75L28.2125 24.7504L28.2127 26.2504L31.1669 26.25L31.1666 24.75ZM28.9198 25.2506C28.5257 24.1347 27.4616 23.3333 26.2084 23.3333V24.8333C26.806 24.8333 27.3164 25.215 27.5055 25.7502L28.9198 25.2506ZM26.2084 23.3333C24.9552 23.3333 23.8912 24.1347 23.497 25.2506L24.9114 25.7502C25.1004 25.215 25.6108 24.8333 26.2084 24.8333V23.3333ZM24.2043 24.7504L21.2502 24.75L21.25 26.25L24.2041 26.2504L24.2043 24.7504ZM22.0001 25.5V14.1667H20.5001V25.5H22.0001ZM21.2501 14.9167H26.2084V13.4167H21.2501V14.9167ZM1.41675 9.25H21.2501V7.75H1.41675V9.25ZM20.5001 8.5V25.5H22.0001V8.5H20.5001ZM21.25 24.75L11.2126 24.7504L11.2127 26.2504L21.2501 26.25L21.25 24.75ZM11.9198 25.2506C11.5257 24.1347 10.4616 23.3333 9.20841 23.3333V24.8333C9.80603 24.8333 10.3164 25.215 10.5055 25.7502L11.9198 25.2506ZM9.20841 23.3333C7.95524 23.3333 6.89116 24.1347 6.497 25.2506L7.91137 25.7502C8.10041 25.215 8.6108 24.8333 9.20841 24.8333V23.3333ZM7.20439 24.7504L5.66695 24.75L5.66655 26.25L7.20398 26.2504L7.20439 24.7504ZM26.2084 24.8333C26.9678 24.8333 27.5834 25.4489 27.5834 26.2083H29.0834C29.0834 24.6205 27.7962 23.3333 26.2084 23.3333V24.8333ZM27.5834 26.2083C27.5834 26.9677 26.9678 27.5833 26.2084 27.5833V29.0833C27.7962 29.0833 29.0834 27.7962 29.0834 26.2083H27.5834ZM26.2084 27.5833C25.449 27.5833 24.8334 26.9677 24.8334 26.2083H23.3334C23.3334 27.7962 24.6206 29.0833 26.2084 29.0833V27.5833ZM24.8334 26.2083C24.8334 25.4489 25.449 24.8333 26.2084 24.8333V23.3333C24.6206 23.3333 23.3334 24.6205 23.3334 26.2083H24.8334ZM9.20841 24.8333C9.96781 24.8333 10.5834 25.4489 10.5834 26.2083H12.0834C12.0834 24.6205 10.7962 23.3333 9.20841 23.3333V24.8333ZM10.5834 26.2083C10.5834 26.9677 9.96781 27.5833 9.20841 27.5833V29.0833C10.7962 29.0833 12.0834 27.7962 12.0834 26.2083H10.5834ZM9.20841 27.5833C8.44902 27.5833 7.83341 26.9677 7.83341 26.2083H6.33341C6.33341 27.7962 7.6206 29.0833 9.20841 29.0833V27.5833ZM7.83341 26.2083C7.83341 25.4489 8.44902 24.8333 9.20841 24.8333V23.3333C7.6206 23.3333 6.33341 24.6205 6.33341 26.2083H7.83341ZM6.37508 16.25H4.25008V17.75H6.37508V16.25ZM6.37508 20.5H5.66675V22H6.37508V20.5ZM6.37508 12H2.83341V13.5H6.37508V12ZM23.497 25.2506C23.3908 25.5512 23.3334 25.8739 23.3334 26.2083H24.8334C24.8334 26.0464 24.8611 25.8925 24.9114 25.7502L23.497 25.2506ZM29.0834 26.2083C29.0834 25.8739 29.026 25.5512 28.9198 25.2506L27.5055 25.7502C27.5557 25.8925 27.5834 26.0464 27.5834 26.2083H29.0834ZM6.497 25.2506C6.39084 25.5512 6.33341 25.8739 6.33341 26.2083H7.83341C7.83341 26.0464 7.8611 25.8925 7.91137 25.7502L6.497 25.2506ZM12.0834 26.2083C12.0834 25.8739 12.026 25.5512 11.9198 25.2506L10.5055 25.7502C10.5557 25.8925 10.5834 26.0464 10.5834 26.2083H12.0834Z" fill="black"/>
</svg>
