<svg width="34" height="34" viewBox="0 0 34 34" fill="none" xmlns="http://www.w3.org/2000/svg">
<g clip-path="url(#clip0_8690_855)">
<path d="M14.875 29.75H9.20833C4.131 29.75 0 25.619 0 20.5417C0 15.4644 4.131 11.3334 9.20833 11.3334H14.875C15.0629 11.3334 15.243 11.408 15.3759 11.5408C15.5087 11.6737 15.5833 11.8538 15.5833 12.0417V16.2917C15.5833 16.4796 15.5087 16.6597 15.3759 16.7926C15.243 16.9254 15.0629 17 14.875 17H9.20833C7.25475 17 5.66667 18.5881 5.66667 20.5417C5.66667 22.4953 7.25475 24.0834 9.20833 24.0834H14.875C15.0629 24.0834 15.243 24.158 15.3759 24.2908C15.5087 24.4237 15.5833 24.6038 15.5833 24.7917V29.0417C15.5833 29.2296 15.5087 29.4097 15.3759 29.5426C15.243 29.6754 15.0629 29.75 14.875 29.75ZM9.20833 12.75C4.913 12.75 1.41667 16.2464 1.41667 20.5417C1.41667 24.837 4.913 28.3334 9.20833 28.3334H14.1667V25.5H9.20833C6.47417 25.5 4.25 23.2759 4.25 20.5417C4.25 17.8075 6.47417 15.5834 9.20833 15.5834H14.1667V12.75H9.20833Z" fill="black"/>
<path d="M10.6251 17C10.4372 17 10.2571 16.9254 10.1242 16.7925C9.99138 16.6597 9.91675 16.4795 9.91675 16.2917V12.0417C9.91675 11.8538 9.99138 11.6736 10.1242 11.5408C10.2571 11.408 10.4372 11.3333 10.6251 11.3333C10.8129 11.3333 10.9931 11.408 11.1259 11.5408C11.2588 11.6736 11.3334 11.8538 11.3334 12.0417V16.2917C11.3334 16.4795 11.2588 16.6597 11.1259 16.7925C10.9931 16.9254 10.8129 17 10.6251 17ZM10.6251 29.75C10.4372 29.75 10.2571 29.6754 10.1242 29.5425C9.99138 29.4097 9.91675 29.2295 9.91675 29.0417V24.7917C9.91675 24.6038 9.99138 24.4236 10.1242 24.2908C10.2571 24.158 10.4372 24.0833 10.6251 24.0833C10.8129 24.0833 10.9931 24.158 11.1259 24.2908C11.2588 24.4236 11.3334 24.6038 11.3334 24.7917V29.0417C11.3334 29.2295 11.2588 29.4097 11.1259 29.5425C10.9931 29.6754 10.8129 29.75 10.6251 29.75ZM26.2084 34H16.2917C15.0578 34 13.9287 33.7549 12.9342 33.2732C12.8505 33.2327 12.7756 33.176 12.7138 33.1065C12.652 33.037 12.6044 32.956 12.5739 32.8682C12.5434 32.7803 12.5305 32.6873 12.5359 32.5944C12.5414 32.5015 12.565 32.4106 12.6056 32.3269C12.6461 32.2432 12.7028 32.1683 12.7723 32.1065C12.8418 32.0446 12.9228 31.9971 13.0107 31.9666C13.0986 31.9361 13.1916 31.9232 13.2844 31.9286C13.3773 31.934 13.4682 31.9577 13.5519 31.9982C14.3523 32.3864 15.2732 32.5833 16.2917 32.5833H26.2084C30.9132 32.5833 32.5834 28.3857 32.5834 24.7917C32.5834 18.7609 29.4837 12.5432 25.1898 9.91667H17.1134C16.9256 9.91667 16.7454 9.84204 16.6125 9.7092C16.4797 9.57636 16.4051 9.39619 16.4051 9.20833C16.4051 9.02047 16.4797 8.8403 16.6125 8.70747C16.7454 8.57463 16.9256 8.5 17.1134 8.5H25.3867C25.5128 8.5 25.6375 8.53258 25.7452 8.59633C30.5292 11.4042 34.0001 18.2141 34.0001 24.7917C34.0001 29.3746 31.5917 34 26.2084 34Z" fill="black"/>
<path d="M26.2084 9.91663H16.2917C15.1202 9.91663 14.1667 8.96321 14.1667 7.79163C14.1667 6.62004 15.1202 5.66663 16.2917 5.66663H26.2084C27.38 5.66663 28.3334 6.62004 28.3334 7.79163C28.3334 8.96321 27.38 9.91663 26.2084 9.91663ZM16.2917 7.08329C15.9022 7.08329 15.5834 7.40204 15.5834 7.79163C15.5834 8.18121 15.9022 8.49996 16.2917 8.49996H26.2084C26.598 8.49996 26.9167 8.18121 26.9167 7.79163C26.9167 7.40204 26.598 7.08329 26.2084 7.08329H16.2917Z" fill="black"/>
<path d="M24.7917 7.08329C24.6447 7.08369 24.5012 7.03831 24.3811 6.95345C24.261 6.8686 24.1703 6.74846 24.1215 6.60972C24.0728 6.47098 24.0684 6.32051 24.1091 6.17919C24.1497 6.03786 24.2333 5.91269 24.3483 5.82104L28.2767 2.67745C28.3942 2.5877 28.4797 2.46251 28.5206 2.32039C28.5614 2.17828 28.5554 2.0268 28.5034 1.88837C28.4577 1.74842 28.3681 1.62694 28.2479 1.54195C28.1277 1.45696 27.9833 1.41301 27.8362 1.41662H14.6626C14.5152 1.41393 14.3709 1.45839 14.2506 1.5435C14.1303 1.62862 14.0404 1.74995 13.9939 1.88979C13.9424 2.02827 13.9366 2.17961 13.9774 2.32162C14.0182 2.46362 14.1034 2.58883 14.2206 2.67887L18.149 5.82245C18.2216 5.88059 18.2821 5.95247 18.327 6.03398C18.3719 6.11549 18.4002 6.20505 18.4105 6.29753C18.4208 6.39001 18.4127 6.4836 18.3868 6.57297C18.3609 6.66233 18.3176 6.74572 18.2595 6.81837C18.2014 6.89102 18.1295 6.9515 18.048 6.99637C17.9665 7.04124 17.8769 7.06962 17.7844 7.07988C17.6919 7.09014 17.5983 7.08209 17.509 7.05618C17.4196 7.03027 17.3362 6.98701 17.2636 6.92887L13.3366 3.78529C12.9898 3.51217 12.7377 3.13682 12.6162 2.71243C12.4946 2.28805 12.5098 1.83617 12.6594 1.42087C12.8019 1.00349 13.0723 0.641593 13.4321 0.386539C13.792 0.131485 14.223 -0.00377479 14.664 -4.70381e-05H27.8376C28.7527 -4.70381e-05 29.539 0.55812 29.8422 1.42087C30.1453 2.28504 29.879 3.21295 29.1636 3.78529L25.2352 6.92887C25.1088 7.02856 24.9527 7.08294 24.7917 7.08329ZM21.9584 26.2083H18.4167C18.2289 26.2083 18.0487 26.1337 17.9159 26.0008C17.783 25.868 17.7084 25.6878 17.7084 25.5C17.7084 25.3121 17.783 25.1319 17.9159 24.9991C18.0487 24.8662 18.2289 24.7916 18.4167 24.7916H21.9584C22.3341 24.7916 22.6945 24.6424 22.9601 24.3767C23.2258 24.111 23.3751 23.7507 23.3751 23.375C23.3751 22.9992 23.2258 22.6389 22.9601 22.3732C22.6945 22.1075 22.3341 21.9583 21.9584 21.9583H20.5417C18.9792 21.9583 17.7084 20.6875 17.7084 19.125C17.7084 17.5624 18.9792 16.2916 20.5417 16.2916H24.0834C24.2713 16.2916 24.4514 16.3662 24.5843 16.4991C24.7171 16.6319 24.7917 16.8121 24.7917 17C24.7917 17.1878 24.7171 17.368 24.5843 17.5008C24.4514 17.6337 24.2713 17.7083 24.0834 17.7083H20.5417C20.166 17.7083 19.8057 17.8575 19.54 18.1232C19.2743 18.3889 19.1251 18.7492 19.1251 19.125C19.1251 19.5007 19.2743 19.861 19.54 20.1267C19.8057 20.3924 20.166 20.5416 20.5417 20.5416H21.9584C23.521 20.5416 24.7917 21.8124 24.7917 23.375C24.7917 24.9375 23.521 26.2083 21.9584 26.2083Z" fill="black"/>
<path d="M21.2501 28.3333C21.0622 28.3333 20.8821 28.2587 20.7492 28.1258C20.6164 27.993 20.5417 27.8128 20.5417 27.625V25.5C20.5417 25.3121 20.6164 25.1319 20.7492 24.9991C20.8821 24.8663 21.0622 24.7916 21.2501 24.7916C21.4379 24.7916 21.6181 24.8663 21.7509 24.9991C21.8838 25.1319 21.9584 25.3121 21.9584 25.5V27.625C21.9584 27.8128 21.8838 27.993 21.7509 28.1258C21.6181 28.2587 21.4379 28.3333 21.2501 28.3333ZM21.2501 17.7083C21.0622 17.7083 20.8821 17.6337 20.7492 17.5008C20.6164 17.368 20.5417 17.1878 20.5417 17V14.875C20.5417 14.6871 20.6164 14.5069 20.7492 14.3741C20.8821 14.2413 21.0622 14.1666 21.2501 14.1666C21.4379 14.1666 21.6181 14.2413 21.7509 14.3741C21.8838 14.5069 21.9584 14.6871 21.9584 14.875V17C21.9584 17.1878 21.8838 17.368 21.7509 17.5008C21.6181 17.6337 21.4379 17.7083 21.2501 17.7083Z" fill="black"/>
</g>
<defs>
<clipPath id="clip0_8690_855">
<rect width="34" height="34" fill="white"/>
</clipPath>
</defs>
</svg>
