<svg width="34" height="34" viewBox="0 0 34 34" fill="none" xmlns="http://www.w3.org/2000/svg">
<g clip-path="url(#clip0_8690_874)">
<path d="M30.4585 24.0833H15.6543C15.4665 24.0833 15.2863 24.0087 15.1535 23.8758C15.0206 23.743 14.946 23.5628 14.946 23.375C14.946 23.1871 15.0206 23.0069 15.1535 22.8741C15.2863 22.7413 15.4665 22.6666 15.6543 22.6666H30.4585C31.6301 22.6666 32.5835 21.7132 32.5835 20.5416V9.20829C32.5835 8.03671 31.6301 7.08329 30.4585 7.08329H10.6252C9.45358 7.08329 8.50016 8.03671 8.50016 9.20829V19.5967C8.50016 19.7846 8.42553 19.9647 8.2927 20.0976C8.15986 20.2304 7.97969 20.305 7.79183 20.305C7.60397 20.305 7.4238 20.2304 7.29096 20.0976C7.15812 19.9647 7.0835 19.7846 7.0835 19.5967V9.20829C7.0835 7.25471 8.673 5.66663 10.6252 5.66663H30.4585C32.4107 5.66663 34.0002 7.25471 34.0002 9.20829V20.5416C34.0002 22.4952 32.4107 24.0833 30.4585 24.0833Z" fill="black"/>
<path d="M0.708509 28.3333C0.52926 28.3335 0.356614 28.2657 0.225375 28.1436C0.094137 28.0215 0.0140676 27.8542 0.00130939 27.6754C-0.0114488 27.4966 0.0440531 27.3196 0.156626 27.1802C0.269198 27.0407 0.430469 26.949 0.607926 26.9238L7.98593 25.8698C9.56922 25.6464 11.0913 25.1063 12.4612 24.2817L16.0269 22.1411C16.4013 21.9143 16.6913 21.5715 16.8527 21.1647C17.0142 20.7579 17.0383 20.3094 16.9214 19.8877C16.8044 19.4659 16.5528 19.0939 16.2049 18.8284C15.857 18.5628 15.4318 18.4183 14.9942 18.4167C14.0663 18.4167 13.1568 18.5909 12.294 18.9352L6.63726 21.199C6.46566 21.2569 6.2784 21.2469 6.11394 21.1711C5.94949 21.0952 5.82034 20.9592 5.75305 20.7911C5.68575 20.6229 5.68542 20.4354 5.75212 20.267C5.81882 20.0986 5.94749 19.9622 6.11168 19.8858L11.7684 17.6219C12.7939 17.2099 13.889 16.9987 14.9942 17C15.9016 17.0004 16.7717 17.3609 17.4135 18.0024C18.0552 18.6439 18.4161 19.5139 18.4168 20.4213C18.4168 21.6183 17.7793 22.7418 16.7551 23.3552L13.1893 25.4958C11.6572 26.4168 9.95565 27.0209 8.18568 27.2723L0.807676 28.3263C0.774805 28.3307 0.741682 28.3331 0.708509 28.3333ZM21.9217 28.3333C21.4897 28.3356 21.0635 28.2342 20.6789 28.0374C20.2943 27.8407 19.9626 27.5545 19.7117 27.2028C19.4572 26.8535 19.2903 26.4482 19.2249 26.021C19.1596 25.5938 19.1978 25.1572 19.3363 24.7478L19.8689 23.1512C19.9163 23.0102 20.0068 22.8876 20.1275 22.8007C20.2482 22.7138 20.3931 22.6669 20.5418 22.6667H24.7918C24.9041 22.6664 25.0149 22.693 25.1148 22.744C25.2148 22.7951 25.3012 22.8693 25.3669 22.9604C25.4325 23.0515 25.4755 23.1569 25.4923 23.268C25.509 23.379 25.4991 23.4924 25.4633 23.5988L24.5057 26.4704C24.3259 27.0134 23.9793 27.4858 23.5153 27.8203C23.0513 28.1548 22.4936 28.3343 21.9217 28.3333ZM21.0518 24.0833L20.6807 25.1954C20.6143 25.392 20.5959 25.6016 20.6272 25.8066C20.6586 26.0117 20.7386 26.2063 20.8606 26.3741C21.44 27.1759 22.8496 26.962 23.1613 26.0228L23.8087 24.0833H21.0518Z" fill="black"/>
<path d="M17.6716 28.3333C17.2396 28.3356 16.8134 28.2341 16.4288 28.0374C16.0442 27.8407 15.7125 27.5544 15.4616 27.2028C15.2071 26.8535 15.0402 26.4482 14.9749 26.021C14.9095 25.5938 14.9477 25.1571 15.0862 24.7477L15.6189 23.1511C15.6663 23.0101 15.7567 22.8876 15.8774 22.8007C15.9981 22.7137 16.143 22.6669 16.2918 22.6666H20.5418C20.6541 22.6664 20.7648 22.6929 20.8648 22.744C20.9648 22.7951 21.0512 22.8692 21.1168 22.9604C21.1824 23.0515 21.2254 23.1569 21.2422 23.2679C21.259 23.3789 21.2491 23.4924 21.2133 23.5988L20.2556 26.4704C20.0758 27.0133 19.7292 27.4857 19.2652 27.8202C18.8013 28.1547 18.2436 28.3343 17.6716 28.3333ZM16.8018 24.0833L16.4306 25.1954C16.3642 25.3919 16.3459 25.6015 16.3772 25.8066C16.4085 26.0117 16.4885 26.2063 16.6105 26.374C17.1899 27.1759 18.5995 26.962 18.9112 26.0227L19.5586 24.0833H16.8018Z" fill="black"/>
<path d="M13.4216 28.3334C12.039 28.3334 10.8759 27.2992 10.7144 25.9265C10.6928 25.7398 10.7459 25.5522 10.8622 25.4047C10.9784 25.2571 11.1484 25.1615 11.3349 25.1388C11.521 25.1191 11.7074 25.173 11.8543 25.2889C12.0013 25.4049 12.097 25.5737 12.1211 25.7593C12.1563 26.0543 12.2908 26.3285 12.5024 26.537C12.7141 26.7454 12.9904 26.8756 13.2858 26.9063C13.5813 26.9369 13.8784 26.8662 14.1284 26.7056C14.3783 26.5451 14.5662 26.3043 14.6612 26.0228L15.6189 23.1512C15.6484 23.063 15.6949 22.9815 15.7559 22.9113C15.8169 22.8411 15.8911 22.7837 15.9743 22.7422C16.0575 22.7007 16.1481 22.6759 16.2409 22.6694C16.3336 22.6629 16.4267 22.6748 16.5149 22.7043C16.6031 22.7337 16.6846 22.7803 16.7548 22.8413C16.825 22.9023 16.8825 22.9765 16.924 23.0597C16.9655 23.1429 16.9902 23.2335 16.9967 23.3262C17.0032 23.419 16.9914 23.5121 16.9619 23.6003L16.0042 26.4719C15.8246 27.0146 15.4782 27.4867 15.0145 27.821C14.5507 28.1553 13.9933 28.3346 13.4216 28.3334ZM0.708456 12.75C0.580329 12.75 0.45462 12.7152 0.344717 12.6493C0.234814 12.5834 0.144832 12.489 0.0843565 12.376C0.0238807 12.2631 -0.00482473 12.1358 0.00129753 12.0079C0.00741979 11.8799 0.0481405 11.756 0.119123 11.6493L0.595123 10.9353C1.38389 9.74944 2.45378 8.77714 3.70946 8.10506C4.96513 7.43298 6.36757 7.08199 7.79179 7.08338C7.97965 7.08338 8.15982 7.15801 8.29266 7.29084C8.4255 7.42368 8.50012 7.60385 8.50012 7.79171C8.50012 7.97957 8.4255 8.15974 8.29266 8.29258C8.15982 8.42542 7.97965 8.50004 7.79179 8.50004C5.36787 8.50004 3.11821 9.70421 1.77379 11.7201L1.29779 12.4341C1.23335 12.5314 1.14578 12.6112 1.04293 12.6663C0.940075 12.7215 0.825153 12.7502 0.708456 12.75ZM20.5418 18.4167C18.5896 18.4167 17.0001 16.8286 17.0001 14.875C17.0001 12.9215 18.5896 11.3334 20.5418 11.3334C22.494 11.3334 24.0835 12.9215 24.0835 14.875C24.0835 16.8286 22.494 18.4167 20.5418 18.4167ZM20.5418 12.75C19.3702 12.75 18.4168 13.7035 18.4168 14.875C18.4168 16.0466 19.3702 17 20.5418 17C21.7134 17 22.6668 16.0466 22.6668 14.875C22.6668 13.7035 21.7134 12.75 20.5418 12.75ZM13.4585 15.5834H12.0418C11.8539 15.5834 11.6738 15.5088 11.5409 15.3759C11.4081 15.2431 11.3335 15.0629 11.3335 14.875C11.3335 14.6872 11.4081 14.507 11.5409 14.3742C11.6738 14.2413 11.8539 14.1667 12.0418 14.1667H13.4585C13.6463 14.1667 13.8265 14.2413 13.9593 14.3742C14.0922 14.507 14.1668 14.6872 14.1668 14.875C14.1668 15.0629 14.0922 15.2431 13.9593 15.3759C13.8265 15.5088 13.6463 15.5834 13.4585 15.5834ZM29.0418 15.5834H27.6251C27.4373 15.5834 27.2571 15.5088 27.1243 15.3759C26.9914 15.2431 26.9168 15.0629 26.9168 14.875C26.9168 14.6872 26.9914 14.507 27.1243 14.3742C27.2571 14.2413 27.4373 14.1667 27.6251 14.1667H29.0418C29.2297 14.1667 29.4098 14.2413 29.5427 14.3742C29.6755 14.507 29.7501 14.6872 29.7501 14.875C29.7501 15.0629 29.6755 15.2431 29.5427 15.3759C29.4098 15.5088 29.2297 15.5834 29.0418 15.5834Z" fill="black"/>
</g>
<defs>
<clipPath id="clip0_8690_874">
<rect width="34" height="34" fill="white"/>
</clipPath>
</defs>
</svg>
